<svg width="1197" height="978" viewBox="0 0 1197 978" fill="none" xmlns="http://www.w3.org/2000/svg">
<path style="mix-blend-mode:multiply" d="M1196.04 89.401V88.0722H1104.7V0H1103.37V88.0722H1012.7V0H1011.37V88.0722H920.698V0H919.37V88.0722H828.696V0H827.367V88.0722H736.694V0H735.365V88.0722H644.692V0H643.363V88.0722H552.69V0H551.361V88.0722H460.688V0H459.359V88.0722H368.686V0H367.357V88.0722H276.684V0H275.355V88.0722H184.682V0H183.353V88.0722H92.6798V0H91.3509V88.0722H0V89.401H91.3376V176.809H0V178.138H91.3376V265.545H0V266.874H91.3376V354.282H0V355.611H91.3376V443.019H0V444.347H91.3376V531.755H0V533.084H91.3376V620.492H0V621.821H91.3376V709.229H0V710.557H91.3376V797.965H0V799.294H91.3376V886.702H0V888.031H91.3376V977.963H92.6665V888.031H183.34V977.963H184.669V888.031H275.342V977.963H276.671V888.031H367.344V977.963H368.673V888.031H459.346V977.963H460.675V888.031H551.348V977.963H552.677V888.031H643.35V977.963H644.679V888.031H735.352V977.963H736.681V888.031H827.354V977.963H828.683V888.031H919.356V977.963H920.685V888.031H1011.36V977.963H1012.69V888.031H1103.36V977.963H1104.69V888.031H1196.03V886.702H1104.69V799.294H1196.03V797.965H1104.69V710.557H1196.03V709.229H1104.69V621.821H1196.03V620.492H1104.69V533.084H1196.03V531.755H1104.69V444.347H1196.03V443.019H1104.69V355.611H1196.03V354.282H1104.69V266.874H1196.03V265.545H1104.69V178.138H1196.03V176.809H1104.69V89.401H1196.03H1196.04ZM1011.37 89.401V176.809H920.698V89.401H1011.37ZM552.677 444.361H643.35V531.769H552.677V444.361ZM551.348 531.769H460.675V444.361H551.348V531.769ZM644.679 444.361H735.352V531.769H644.679V444.361ZM644.679 443.032V355.624H735.352V443.032H644.679ZM643.35 443.032H552.677V355.624H643.35V443.032ZM551.348 443.032H460.675V355.624H551.348V443.032ZM459.346 443.032H368.673V355.624H459.346V443.032ZM459.346 444.361V531.769H368.673V444.361H459.346ZM459.346 533.097V620.505H368.673V533.097H459.346ZM460.675 533.097H551.348V620.505H460.675V533.097ZM552.677 533.097H643.35V620.505H552.677V533.097ZM644.679 533.097H735.352V620.505H644.679V533.097ZM736.681 533.097H827.354V620.505H736.681V533.097ZM736.681 531.769V444.361H827.354V531.769H736.681ZM736.681 443.032V355.624H827.354V443.032H736.681ZM736.681 354.295V266.888H827.354V354.295H736.681ZM735.352 354.295H644.679V266.888H735.352V354.295ZM643.35 354.295H552.677V266.888H643.35V354.295ZM551.348 354.295H460.675V266.888H551.348V354.295ZM459.346 354.295H368.673V266.888H459.346V354.295ZM367.344 354.295H276.671V266.888H367.344V354.295ZM367.344 355.624V443.032H276.671V355.624H367.344ZM367.344 444.361V531.769H276.671V444.361H367.344ZM367.344 533.097V620.505H276.671V533.097H367.344ZM367.344 621.834V709.242H276.671V621.834H367.344ZM368.673 621.834H459.346V709.242H368.673V621.834ZM460.675 621.834H551.348V709.242H460.675V621.834ZM552.677 621.834H643.35V709.242H552.677V621.834ZM644.679 621.834H735.352V709.242H644.679V621.834ZM736.681 621.834H827.354V709.242H736.681V621.834ZM828.683 621.834H919.356V709.242H828.683V621.834ZM828.683 620.505V533.097H919.356V620.505H828.683ZM828.683 531.769V444.361H919.356V531.769H828.683ZM828.683 443.032V355.624H919.356V443.032H828.683ZM828.683 354.295V266.888H919.356V354.295H828.683ZM828.683 265.559V178.151H919.356V265.559H828.683ZM827.354 265.559H736.681V178.151H827.354V265.559ZM735.352 265.559H644.679V178.151H735.352V265.559ZM643.35 265.559H552.677V178.151H643.35V265.559ZM551.348 265.559H460.675V178.151H551.348V265.559ZM459.346 265.559H368.673V178.151H459.346V265.559ZM367.344 265.559H276.671V178.151H367.344V265.559ZM275.342 265.559H184.669V178.151H275.342V265.559ZM275.342 266.888V354.295H184.669V266.888H275.342ZM275.342 355.624V443.032H184.669V355.624H275.342ZM275.342 444.361V531.769H184.669V444.361H275.342ZM275.342 533.097V620.505H184.669V533.097H275.342ZM275.342 621.834V709.242H184.669V621.834H275.342ZM275.342 710.571V797.978H184.669V710.571H275.342ZM276.671 710.571H367.344V797.978H276.671V710.571ZM368.673 710.571H459.346V797.978H368.673V710.571ZM460.675 710.571H551.348V797.978H460.675V710.571ZM552.677 710.571H643.35V797.978H552.677V710.571ZM644.679 710.571H735.352V797.978H644.679V710.571ZM736.681 710.571H827.354V797.978H736.681V710.571ZM828.683 710.571H919.356V797.978H828.683V710.571ZM920.685 710.571H1011.36V797.978H920.685V710.571ZM920.685 709.242V621.834H1011.36V709.242H920.685ZM920.685 620.505V533.097H1011.36V620.505H920.685ZM920.685 531.769V444.361H1011.36V531.769H920.685ZM920.685 443.032V355.624H1011.36V443.032H920.685ZM920.685 354.295V266.888H1011.36V354.295H920.685ZM920.685 265.559V178.151H1011.36V265.559H920.685ZM919.356 89.4143V176.822H828.683V89.4143H919.356ZM827.354 89.4143V176.822H736.681V89.4143H827.354ZM735.352 89.4143V176.822H644.679V89.4143H735.352ZM643.35 89.4143V176.822H552.677V89.4143H643.35ZM551.348 89.4143V176.822H460.675V89.4143H551.348ZM459.346 89.4143V176.822H368.673V89.4143H459.346ZM367.344 89.4143V176.822H276.671V89.4143H367.344ZM275.342 89.4143V176.822H184.669V89.4143H275.342ZM92.6665 89.4143H183.34V176.822H92.6665V89.4143ZM92.6665 178.151H183.34V265.559H92.6665V178.151ZM92.6665 266.888H183.34V354.295H92.6665V266.888ZM92.6665 355.624H183.34V443.032H92.6665V355.624ZM92.6665 444.361H183.34V531.769H92.6665V444.361ZM92.6665 533.097H183.34V620.505H92.6665V533.097ZM92.6665 621.834H183.34V709.242H92.6665V621.834ZM92.6665 710.571H183.34V797.978H92.6665V710.571ZM92.6665 886.715V799.307H183.34V886.715H92.6665ZM184.669 886.715V799.307H275.342V886.715H184.669ZM276.671 886.715V799.307H367.344V886.715H276.671ZM368.673 886.715V799.307H459.346V886.715H368.673ZM460.675 886.715V799.307H551.348V886.715H460.675ZM552.677 886.715V799.307H643.35V886.715H552.677ZM644.679 886.715V799.307H735.352V886.715H644.679ZM736.681 886.715V799.307H827.354V886.715H736.681ZM828.683 886.715V799.307H919.356V886.715H828.683ZM920.685 886.715V799.307H1011.36V886.715H920.685ZM1103.36 886.715H1012.69V799.307H1103.36V886.715ZM1103.36 797.978H1012.69V710.571H1103.36V797.978ZM1103.36 709.242H1012.69V621.834H1103.36V709.242ZM1103.36 620.505H1012.69V533.097H1103.36V620.505ZM1103.36 531.769H1012.69V444.361H1103.36V531.769ZM1103.36 443.032H1012.69V355.624H1103.36V443.032ZM1103.36 354.295H1012.69V266.888H1103.36V354.295ZM1103.36 265.559H1012.69V178.151H1103.36V265.559ZM1103.36 176.822H1012.69V89.4143H1103.36V176.822Z" fill="url(#paint0_radial_595_262)"/>
<defs>
<radialGradient id="paint0_radial_595_262" cx="0" cy="0" r="1" gradientUnits="userSpaceOnUse" gradientTransform="translate(598.02 488.995) scale(677.956 677.882)">
<stop stop-color="#B2D4FF"/>
<stop offset="0.05" stop-color="#B6D6FF" stop-opacity="0.95"/>
<stop offset="0.15" stop-color="#C0DBFF" stop-opacity="0.83"/>
<stop offset="0.28" stop-color="#D2E4FF" stop-opacity="0.63"/>
<stop offset="0.36" stop-color="#DEEBFF" stop-opacity="0.5"/>
<stop offset="0.45" stop-color="#E0ECFF" stop-opacity="0.47"/>
<stop offset="0.59" stop-color="#E6EFFF" stop-opacity="0.38"/>
<stop offset="0.77" stop-color="#EFF5FF" stop-opacity="0.23"/>
<stop offset="0.98" stop-color="#FDFDFF" stop-opacity="0.03"/>
<stop offset="1" stop-color="white" stop-opacity="0"/>
</radialGradient>
</defs>
</svg>
